<?xml version="1.0" ?><svg viewBox="0 0 32 32" xmlns="http://www.w3.org/2000/svg"><defs><style>.cls-1{fill:#77acf1;}.cls-2{fill:#04009a;}</style></defs><g data-name="24. Container" id="_24._Container"><path class="cls-1" d="M6,23a1,1,0,0,1-1-1V12a1,1,0,0,1,2,0V22A1,1,0,0,1,6,23Z"/><path class="cls-1" d="M11,23a1,1,0,0,1-1-1V12a1,1,0,0,1,2,0V22A1,1,0,0,1,11,23Z"/><path class="cls-1" d="M16,23a1,1,0,0,1-1-1V12a1,1,0,0,1,2,0V22A1,1,0,0,1,16,23Z"/><path class="cls-1" d="M21,23a1,1,0,0,1-1-1V12a1,1,0,0,1,2,0V22A1,1,0,0,1,21,23Z"/><path class="cls-1" d="M26,23a1,1,0,0,1-1-1V12a1,1,0,0,1,2,0V22A1,1,0,0,1,26,23Z"/><path class="cls-2" d="M31,25V9a1,1,0,0,0,0-2H27V6a1,1,0,0,0-2,0V7H6V6A1,1,0,0,0,4,6V7H1A1,1,0,0,0,1,9V25a1,1,0,0,0,0,2H31a1,1,0,0,0,0-2Zm-2,0H3V9H29Z"/></g></svg>